<svg version="1.1" id="Layer_1" xmlns="http://www.w3.org/2000/svg" xmlns:xlink="http://www.w3.org/1999/xlink" x="0px" y="0px"
	 width="100%" viewBox="0 0 2080 2048" enable-background="new 0 0 2080 2048" xml:space="preserve">
<path fill="none" opacity="1.000000" stroke="none" 
	d="
M1168.000000,2050.000000 
	C778.713623,2050.000000 390.427216,2050.000000 2.070412,2050.000000 
	C2.070412,1367.462769 2.070412,684.925598 2.070412,2.194191 
	C695.119995,2.194191 1388.239990,2.194191 2081.680176,2.194191 
	C2081.680176,684.666565 2081.680176,1367.333252 2081.680176,2050.000000 
	C1777.591675,2050.000000 1473.295776,2050.000000 1168.000000,2050.000000 
M1340.148071,907.883240 
	C1340.148071,907.883240 1340.427124,907.833801 1340.197876,906.690247 
	C1339.604858,906.238892 1339.011963,905.787537 1338.468018,905.218384 
	C1338.468018,905.218384 1338.499390,905.094666 1338.178711,903.797607 
	C1330.031372,893.235779 1321.884155,882.673950 1313.357056,870.793213 
	C1311.161621,868.349243 1309.381104,865.085327 1306.648682,863.702759 
	C1304.149292,862.438049 1300.138306,862.172607 1297.660522,863.327393 
	C1294.091675,864.990540 1294.606567,869.110229 1296.386597,872.035645 
	C1299.101440,876.497681 1302.462524,880.566589 1305.900024,886.103455 
	C1312.601074,895.415405 1319.302002,904.727417 1326.320190,915.368347 
	C1334.029663,925.900024 1341.739136,936.431763 1349.822510,948.246948 
	C1358.526611,960.193115 1367.230713,972.139282 1376.004761,984.007568 
	C1376.004761,984.007568 1375.907837,984.045288 1376.075439,985.142212 
	C1376.651367,985.558777 1377.227173,985.975342 1377.841675,986.140808 
	C1377.841675,986.140808 1377.589111,986.167480 1377.763306,987.318665 
	C1378.536621,988.132507 1379.309814,988.946350 1380.032104,989.934326 
	C1380.032104,989.934326 1380.210571,989.966797 1380.308960,990.995850 
	C1380.844971,991.381042 1381.380859,991.766296 1381.983521,992.006775 
	C1381.983521,992.006775 1381.856567,992.103088 1382.021240,993.343994 
	C1383.338379,994.895447 1384.655518,996.446899 1385.995117,998.005005 
	C1385.995117,998.005005 1385.993530,998.029236 1386.125000,999.119202 
	C1386.683960,999.540833 1387.243042,999.962402 1387.842651,1000.136902 
	C1387.842651,1000.136902 1387.593384,1000.160522 1387.741699,1001.337402 
	C1388.502930,1002.187500 1389.264160,1003.037598 1389.982666,1003.992004 
	C1389.982666,1003.992004 1390.094727,1004.003052 1390.213867,1005.108887 
	C1390.757446,1005.582825 1391.301147,1006.056824 1392.075806,1007.856873 
	C1408.692871,1031.604004 1425.311157,1055.350220 1441.925049,1079.099609 
	C1443.643555,1081.556396 1445.761841,1083.853882 1446.889893,1086.560791 
	C1447.638550,1088.357178 1447.778931,1091.672241 1446.697754,1092.641724 
	C1445.382324,1093.821289 1442.180542,1094.006714 1440.370972,1093.247803 
	C1438.051270,1092.275024 1436.141235,1090.086670 1434.341797,1088.154541 
	C1427.755859,1081.082397 1421.238770,1073.944580 1414.785522,1066.750854 
	C1368.054688,1014.656677 1321.349976,962.539062 1274.627441,910.437439 
	C1259.943604,894.063049 1245.014038,877.902893 1230.591675,861.301758 
	C1216.248413,844.791565 1211.154541,825.248901 1213.552246,803.675415 
	C1214.655640,793.747620 1215.981567,783.843994 1217.261475,773.936523 
	C1220.665527,747.588501 1217.327881,723.200439 1200.398560,701.166382 
	C1174.825317,667.881958 1150.395264,633.721069 1125.365234,600.017273 
	C1049.079956,497.296844 972.720581,394.631470 896.428040,291.916534 
	C840.599976,216.753662 784.840088,141.540131 729.018066,66.372787 
	C725.292908,61.356617 721.298218,56.540630 717.603271,51.852764 
	C714.066040,52.939602 711.500977,53.636192 708.997803,54.510029 
	C573.765564,101.718094 453.428284,173.816010 348.322937,271.109802 
	C242.004364,369.526703 159.830139,485.173553 101.004616,617.641724 
	C52.367691,727.166382 24.834181,841.735107 16.297125,961.040527 
	C11.668447,1025.726562 13.940831,1090.260986 22.292490,1154.543091 
	C31.104994,1222.372437 45.689758,1288.921753 67.435371,1353.856323 
	C108.280006,1475.822388 169.030380,1586.780029 251.024689,1685.954712 
	C302.421631,1748.121094 360.703156,1803.104492 424.791779,1852.076782 
	C516.461975,1922.125000 616.604126,1975.751831 727.214722,2009.219971 
	C767.413879,2021.383301 808.240662,2030.882812 849.917358,2036.585693 
	C855.806213,2037.391357 859.949036,2035.895142 864.261169,2032.088745 
	C906.846619,1994.498169 943.205627,1951.895874 969.974365,1901.525146 
	C1015.666382,1815.546265 1030.493164,1724.597046 1013.721802,1628.607788 
	C1004.911011,1578.179688 987.881775,1530.753418 960.063538,1487.661377 
	C926.065552,1434.996460 888.667358,1384.737915 849.653564,1335.697388 
	C837.422913,1320.323486 821.113770,1310.667236 802.117432,1306.164185 
	C787.880310,1302.789062 773.322937,1300.791016 758.979126,1297.835083 
	C700.027100,1285.686401 651.300842,1256.376099 612.790100,1210.145020 
	C579.726257,1170.452881 558.928101,1124.786865 547.209351,1074.739258 
	C540.351562,1045.451172 539.016479,1016.068481 546.290894,986.672974 
	C558.737305,936.377197 595.429749,905.585876 646.985046,901.471863 
	C675.865417,899.167175 702.333923,907.030579 727.815552,919.555359 
	C765.265686,937.962891 795.890686,964.936035 822.764465,996.327209 
	C865.418335,1046.151123 887.700806,1103.701782 885.465027,1169.670288 
	C884.642883,1193.930908 882.344910,1218.222534 879.191284,1242.299805 
	C876.147400,1265.538818 880.468994,1286.808350 892.402405,1306.478516 
	C901.894836,1322.125000 911.785950,1337.623657 922.687012,1352.306641 
	C1001.735291,1458.779175 1081.151245,1564.978516 1160.320801,1671.361084 
	C1238.894653,1776.943115 1317.312012,1882.641724 1395.826172,1988.268188 
	C1397.951660,1991.127808 1400.396973,1993.749512 1402.664429,1996.447998 
	C1406.634277,1994.972290 1409.760620,1993.860596 1412.850220,1992.654541 
	C1485.724243,1964.204834 1554.680420,1928.392334 1619.454834,1884.371704 
	C1714.292603,1819.919556 1796.524658,1742.212524 1865.802002,1650.966309 
	C1926.016724,1571.656738 1973.190308,1485.006836 2008.294678,1391.806152 
	C2030.414673,1333.078491 2046.715576,1272.732666 2057.680176,1210.985718 
	C2061.338379,1190.382935 2063.400391,1169.496704 2067.096680,1147.291260 
	C2069.315430,1122.460815 2072.236328,1097.668579 2073.593506,1072.791138 
	C2075.787598,1032.564819 2074.972412,992.308777 2071.706543,952.140442 
	C2071.016602,943.655457 2069.379883,935.247498 2068.659668,926.775330 
	C2068.659668,926.775330 2068.719482,926.298035 2068.928467,924.422668 
	C2067.368408,913.506592 2065.808594,902.590515 2064.209229,891.936218 
	C2064.209229,891.936218 2064.472900,891.915039 2064.703613,890.154602 
	C2063.208496,881.691040 2061.713379,873.227539 2060.625488,864.682373 
	C2060.625488,864.682373 2060.629150,864.267090 2060.734619,862.529968 
	C2059.903564,859.267700 2059.072266,856.005493 2058.636963,852.644470 
	C2058.636963,852.644470 2058.626953,852.236633 2058.724121,850.618652 
	C2057.958740,847.598328 2057.193359,844.578003 2056.429932,841.893494 
	C2056.429932,841.893494 2056.749023,841.788391 2056.858398,840.137939 
	C2055.977295,837.010010 2055.096191,833.882080 2054.635986,829.235352 
	C2054.367676,827.253540 2054.226074,825.244873 2053.812256,823.293945 
	C2043.718506,775.694336 2030.877441,728.858032 2014.163330,683.143250 
	C1980.802734,591.898804 1935.997925,506.613861 1879.240479,427.779663 
	C1804.052612,323.346069 1712.386353,235.971100 1604.913452,165.179108 
	C1508.284668,101.530075 1403.530640,56.566101 1291.426147,28.321545 
	C1283.237549,26.258467 1277.371094,27.043684 1270.756836,32.855831 
	C1186.694824,106.723358 1132.439331,197.433823 1114.505371,308.625946 
	C1106.781860,356.513092 1108.794922,404.225281 1119.331421,451.597168 
	C1129.726318,498.332245 1149.487305,541.130676 1174.945801,581.277832 
	C1195.276489,613.338501 1216.922119,644.567566 1238.099365,676.088318 
	C1251.143433,695.503540 1268.939941,707.993530 1292.129272,712.458435 
	C1304.872803,714.912048 1317.586304,717.523071 1330.305176,720.103088 
	C1347.723389,723.636230 1361.890869,732.560242 1372.291016,746.853699 
	C1378.735107,755.709900 1384.753906,764.983521 1389.965942,774.609985 
	C1414.222656,819.412109 1438.291992,864.317871 1462.111328,909.354309 
	C1479.230469,941.722168 1495.849731,974.354492 1512.599243,1008.417969 
	C1515.021851,1015.208252 1519.730225,1021.343811 1518.836304,1029.476318 
	C1516.322998,1028.949341 1514.144775,1028.492554 1511.184692,1027.571167 
	C1510.524170,1026.970337 1509.863647,1026.369629 1508.806885,1024.517334 
	C1507.942261,1023.586243 1507.077637,1022.655090 1506.133057,1021.879395 
	C1506.133057,1021.879395 1506.307617,1021.889404 1506.113525,1020.574707 
	C1505.477417,1019.992371 1504.841187,1019.410034 1504.306519,1018.285522 
	C1504.306519,1018.285522 1503.825562,1018.015625 1503.735718,1016.970703 
	C1503.191040,1016.576965 1502.646362,1016.183289 1502.050781,1015.958801 
	C1502.050781,1015.958801 1502.202148,1015.867554 1502.017334,1014.624939 
	C1500.705200,1013.053650 1499.393066,1011.482361 1497.994507,1009.990051 
	C1497.994507,1009.990051 1498.099609,1009.941223 1497.961304,1008.833435 
	C1497.398804,1008.398010 1496.836426,1007.962524 1496.226196,1007.811829 
	C1496.226196,1007.811829 1496.511841,1007.769043 1496.351196,1006.583069 
	C1495.565186,1005.741760 1494.779297,1004.900391 1494.014893,1003.997375 
	C1494.014893,1003.997375 1493.950073,1003.992554 1493.826782,1002.917969 
	C1493.267944,1002.515869 1492.708984,1002.113770 1492.123657,1001.901367 
	C1492.123657,1001.901367 1492.285645,1001.798950 1492.071655,1000.559082 
	C1490.751099,998.993835 1489.430542,997.428589 1488.002686,995.978149 
	C1488.002686,995.978149 1488.151245,995.927307 1488.026855,994.809082 
	C1487.481445,994.347229 1486.936035,993.885437 1486.331787,993.740540 
	C1486.331787,993.740540 1486.646484,993.670898 1486.476318,992.465942 
	C1485.686768,991.595764 1484.897217,990.725647 1484.004028,989.988403 
	C1484.004028,989.988403 1484.147827,989.900513 1483.912476,988.528870 
	C1475.918457,977.008179 1467.924438,965.487549 1459.806152,952.911926 
	C1459.266479,952.489746 1458.726685,952.067627 1457.904419,950.502258 
	C1457.333984,949.980286 1456.763428,949.458313 1455.983032,947.649902 
	C1449.399536,938.409546 1442.816162,929.169189 1435.910889,918.568359 
	C1426.496582,905.075256 1417.082397,891.582214 1407.404785,876.838623 
	C1405.069946,873.852356 1402.735107,870.866089 1400.053589,866.585388 
	C1399.409546,865.995239 1398.765503,865.405090 1398.257080,864.248657 
	C1398.257080,864.248657 1397.751343,863.959900 1397.616089,862.972290 
	C1397.306152,862.313660 1396.791382,861.928833 1396.034302,861.971741 
	C1396.034302,861.971741 1396.172363,861.894043 1395.940918,860.664490 
	C1394.655273,859.066711 1393.369629,857.468994 1392.040405,855.940125 
	C1392.040405,855.940125 1392.118652,855.903625 1391.821289,854.548523 
	C1384.675659,844.113220 1377.749512,833.517334 1370.290894,823.310669 
	C1366.586060,818.240601 1362.840454,817.522339 1359.192871,819.713623 
	C1355.448364,821.963135 1354.667969,825.631409 1358.109375,831.040771 
	C1366.483887,844.203247 1375.298950,857.085510 1383.988647,870.021179 
	C1383.988647,870.021179 1383.918579,870.041748 1384.094971,871.143860 
	C1384.651367,871.587585 1385.207886,872.031311 1385.796021,872.151428 
	C1385.796021,872.151428 1385.474121,872.196838 1385.650879,873.399658 
	C1386.407837,874.301819 1387.164673,875.203979 1388.005615,876.014099 
	C1388.005615,876.014099 1387.887939,876.054688 1388.055786,877.163147 
	C1388.615234,877.606079 1389.174683,878.048950 1389.683472,878.220154 
	C1389.683472,878.220154 1389.448486,878.365601 1389.589722,879.302429 
	C1389.589722,879.302429 1390.278564,879.952881 1390.489868,881.265198 
	C1393.403931,885.594299 1396.317993,889.923340 1399.567139,895.484619 
	C1399.717529,896.321716 1399.867920,897.158813 1398.800171,898.590759 
	C1395.995483,900.455566 1396.351562,902.788696 1397.573730,905.457642 
	C1398.974609,908.517029 1400.115601,911.695374 1401.992065,916.374390 
	C1395.504639,913.063110 1390.632935,910.576538 1384.729858,907.573975 
	C1383.918213,906.777710 1383.106689,905.981506 1381.998047,903.905518 
	C1376.649292,896.657532 1371.300659,889.409546 1365.591309,880.824951 
	C1357.660645,869.907532 1349.729980,858.990112 1341.454102,846.715027 
	C1340.147217,845.236328 1338.968628,843.613770 1337.505859,842.309998 
	C1334.785278,839.885376 1331.749512,839.183777 1328.510864,841.434631 
	C1324.867798,843.966797 1324.598022,847.527649 1326.299561,851.059143 
	C1327.547119,853.647888 1329.695435,855.802612 1331.857056,859.505432 
	C1339.791138,870.633179 1347.725098,881.760864 1355.947144,894.172058 
	C1360.663086,901.372681 1365.379028,908.573303 1370.030884,917.347839 
	C1371.912231,923.033325 1373.793579,928.718811 1375.649658,934.327942 
	C1371.417969,937.308655 1368.761719,935.172546 1365.721924,932.889832 
	C1363.029541,930.867920 1359.727783,929.657715 1355.659546,927.129944 
	C1351.182007,921.464661 1346.704346,915.799316 1341.964966,908.981201 
	C1341.361816,908.520813 1340.758667,908.060425 1340.148071,907.883240 
z"/>
<path fill="#B5212B" opacity="1.000000" stroke="none" 
	d="
M1512.692017,1006.868835 
	C1495.849731,974.354492 1479.230469,941.722168 1462.111328,909.354309 
	C1438.291992,864.317871 1414.222656,819.412109 1389.965942,774.609985 
	C1384.753906,764.983521 1378.735107,755.709900 1372.291016,746.853699 
	C1361.890869,732.560242 1347.723389,723.636230 1330.305176,720.103088 
	C1317.586304,717.523071 1304.872803,714.912048 1292.129272,712.458435 
	C1268.939941,707.993530 1251.143433,695.503540 1238.099365,676.088318 
	C1216.922119,644.567566 1195.276489,613.338501 1174.945801,581.277832 
	C1149.487305,541.130676 1129.726318,498.332245 1119.331421,451.597168 
	C1108.794922,404.225281 1106.781860,356.513092 1114.505371,308.625946 
	C1132.439331,197.433823 1186.694824,106.723358 1270.756836,32.855831 
	C1277.371094,27.043684 1283.237549,26.258467 1291.426147,28.321545 
	C1403.530640,56.566101 1508.284668,101.530075 1604.913452,165.179108 
	C1712.386353,235.971100 1804.052612,323.346069 1879.240479,427.779663 
	C1935.997925,506.613861 1980.802734,591.898804 2014.163330,683.143250 
	C2030.877441,728.858032 2043.718506,775.694336 2053.812256,823.293945 
	C2054.226074,825.244873 2054.367676,827.253540 2054.384521,830.894287 
	C2054.510498,835.771729 2052.460205,839.677917 2056.749023,841.788391 
	C2056.749023,841.788391 2056.429932,841.893494 2056.303467,842.568848 
	C2056.993652,846.241699 2057.810303,849.239197 2058.626953,852.236633 
	C2058.626953,852.236633 2058.636963,852.644470 2058.385254,853.602722 
	C2058.326416,857.960632 2056.831055,861.794434 2060.629150,864.267090 
	C2060.629150,864.267090 2060.625488,864.682373 2060.368896,865.693237 
	C2059.736816,875.424133 2060.198486,883.999329 2064.472900,891.915039 
	C2064.472900,891.915039 2064.209229,891.936218 2064.153320,892.737061 
	C2064.839355,903.489990 2065.518066,913.447693 2066.418213,923.385437 
	C2066.511475,924.417297 2067.920898,925.330017 2068.719482,926.298035 
	C2068.719482,926.298035 2068.659668,926.775330 2068.381836,927.799194 
	C2068.097168,935.132446 2067.400635,941.531494 2068.207031,947.735168 
	C2071.196777,970.742798 2072.318115,993.810974 2072.031494,1016.992065 
	C2071.826416,1033.595093 2072.291504,1050.209229 2071.921387,1066.806396 
	C2071.663818,1078.351929 2070.549805,1089.880859 2069.723877,1101.410522 
	C2068.593506,1117.190430 2067.373291,1132.963745 2066.191895,1148.739990 
	C2063.400391,1169.496704 2061.338379,1190.382935 2057.680176,1210.985718 
	C2046.715576,1272.732666 2030.414673,1333.078491 2008.294678,1391.806152 
	C1973.190308,1485.006836 1926.016724,1571.656738 1865.802002,1650.966309 
	C1796.524658,1742.212524 1714.292603,1819.919556 1619.454834,1884.371704 
	C1554.680420,1928.392334 1485.724243,1964.204834 1412.850220,1992.654541 
	C1409.760620,1993.860596 1406.634277,1994.972290 1402.664429,1996.447998 
	C1400.396973,1993.749512 1397.951660,1991.127808 1395.826172,1988.268188 
	C1317.312012,1882.641724 1238.894653,1776.943115 1160.320801,1671.361084 
	C1081.151245,1564.978516 1001.735291,1458.779175 922.687012,1352.306641 
	C911.785950,1337.623657 901.894836,1322.125000 892.402405,1306.478516 
	C880.468994,1286.808350 876.147400,1265.538818 879.191284,1242.299805 
	C882.344910,1218.222534 884.642883,1193.930908 885.465027,1169.670288 
	C887.700806,1103.701782 865.418335,1046.151123 822.764465,996.327209 
	C795.890686,964.936035 765.265686,937.962891 727.815552,919.555359 
	C702.333923,907.030579 675.865417,899.167175 646.985046,901.471863 
	C595.429749,905.585876 558.737305,936.377197 546.290894,986.672974 
	C539.016479,1016.068481 540.351562,1045.451172 547.209351,1074.739258 
	C558.928101,1124.786865 579.726257,1170.452881 612.790100,1210.145020 
	C651.300842,1256.376099 700.027100,1285.686401 758.979126,1297.835083 
	C773.322937,1300.791016 787.880310,1302.789062 802.117432,1306.164185 
	C821.113770,1310.667236 837.422913,1320.323486 849.653564,1335.697388 
	C888.667358,1384.737915 926.065552,1434.996460 960.063538,1487.661377 
	C987.881775,1530.753418 1004.911011,1578.179688 1013.721802,1628.607788 
	C1030.493164,1724.597046 1015.666382,1815.546265 969.974365,1901.525146 
	C943.205627,1951.895874 906.846619,1994.498169 864.261169,2032.088745 
	C859.949036,2035.895142 855.806213,2037.391357 849.917358,2036.585693 
	C808.240662,2030.882812 767.413879,2021.383301 727.214722,2009.219971 
	C616.604126,1975.751831 516.461975,1922.125000 424.791779,1852.076782 
	C360.703156,1803.104492 302.421631,1748.121094 251.024689,1685.954712 
	C169.030380,1586.780029 108.280006,1475.822388 67.435371,1353.856323 
	C45.689758,1288.921753 31.104994,1222.372437 22.292490,1154.543091 
	C13.940831,1090.260986 11.668447,1025.726562 16.297125,961.040527 
	C24.834181,841.735107 52.367691,727.166382 101.004616,617.641724 
	C159.830139,485.173553 242.004364,369.526703 348.322937,271.109802 
	C453.428284,173.816010 573.765564,101.718094 708.997803,54.510029 
	C711.500977,53.636192 714.066040,52.939602 717.603271,51.852764 
	C721.298218,56.540630 725.292908,61.356617 729.018066,66.372787 
	C784.840088,141.540131 840.599976,216.753662 896.428040,291.916534 
	C972.720581,394.631470 1049.079956,497.296844 1125.365234,600.017273 
	C1150.395264,633.721069 1174.825317,667.881958 1200.398560,701.166382 
	C1217.327881,723.200439 1220.665527,747.588501 1217.261475,773.936523 
	C1215.981567,783.843994 1214.655640,793.747620 1213.552246,803.675415 
	C1211.154541,825.248901 1216.248413,844.791565 1230.591675,861.301758 
	C1245.014038,877.902893 1259.943604,894.063049 1274.627441,910.437439 
	C1321.349976,962.539062 1368.054688,1014.656677 1414.785522,1066.750854 
	C1421.238770,1073.944580 1427.755859,1081.082397 1434.341797,1088.154541 
	C1436.141235,1090.086670 1438.051270,1092.275024 1440.370972,1093.247803 
	C1442.180542,1094.006714 1445.382324,1093.821289 1446.697754,1092.641724 
	C1447.778931,1091.672241 1447.638550,1088.357178 1446.889893,1086.560791 
	C1445.761841,1083.853882 1443.643555,1081.556396 1441.925049,1079.099609 
	C1425.311157,1055.350220 1408.692871,1031.604004 1391.837646,1006.668884 
	C1391.097900,1004.988281 1390.596313,1004.495667 1390.094727,1004.003052 
	C1390.094727,1004.003052 1389.982666,1003.992004 1389.940918,1003.333984 
	C1389.130615,1001.837463 1388.362061,1000.999023 1387.593384,1000.160522 
	C1387.593384,1000.160522 1387.842651,1000.136902 1387.695801,999.749756 
	C1387.030396,998.918152 1386.511963,998.473694 1385.993530,998.029236 
	C1385.993530,998.029236 1385.995117,998.005005 1385.983765,997.286621 
	C1386.033691,993.758728 1384.868774,992.079468 1381.856567,992.103088 
	C1381.856567,992.103088 1381.983521,992.006775 1381.796875,991.623413 
	C1381.290283,990.654480 1380.823730,990.230042 1380.210571,989.966797 
	C1380.210571,989.966797 1380.032104,989.934326 1379.972656,989.256470 
	C1379.138550,987.774963 1378.363770,986.971252 1377.589111,986.167480 
	C1377.589111,986.167480 1377.841675,986.140808 1377.685669,985.748352 
	C1376.989014,984.919067 1376.448486,984.482178 1375.907837,984.045288 
	C1375.907837,984.045288 1376.004761,984.007568 1375.991211,983.225464 
	C1376.567139,972.310364 1377.235107,971.517883 1387.188232,970.150818 
	C1399.765625,986.431335 1411.807983,1002.341492 1423.826538,1018.269470 
	C1436.247192,1034.729858 1448.596313,1051.244507 1461.076294,1067.659546 
	C1466.101685,1074.269409 1470.618408,1076.439941 1472.910767,1073.466553 
	C1476.520508,1068.783936 1472.178833,1065.406616 1469.961670,1062.074829 
	C1458.355103,1044.634644 1446.498901,1027.360840 1434.802856,1009.979919 
	C1429.073120,1001.465027 1423.502319,992.843140 1418.006348,983.555725 
	C1422.174805,979.855774 1426.196533,976.869690 1430.837158,974.166992 
	C1436.008667,980.502136 1440.709106,986.449219 1445.086182,992.625427 
	C1458.146729,1011.054565 1471.054077,1029.592041 1484.092285,1048.037109 
	C1485.996948,1050.731689 1487.964111,1053.577393 1490.527466,1055.534912 
	C1491.961060,1056.629639 1494.968384,1056.709839 1496.710571,1055.958130 
	C1497.741211,1055.513428 1498.506714,1052.249390 1497.960449,1050.787720 
	C1496.583008,1047.101929 1494.572754,1043.609863 1492.500488,1040.234131 
	C1484.348145,1026.954712 1476.073730,1013.750122 1467.721680,999.995972 
	C1467.102783,998.979858 1466.606812,998.485657 1466.050293,997.987122 
	C1465.989746,997.982788 1466.040649,997.872620 1466.034180,997.072021 
	C1467.389771,988.676270 1468.336548,987.628540 1474.771606,988.082214 
	C1477.924194,988.304504 1481.024048,989.270874 1484.147827,989.900513 
	C1484.147827,989.900513 1484.004028,989.988403 1484.081055,990.569580 
	C1484.987671,991.990784 1485.817017,992.830811 1486.646484,993.670898 
	C1486.646484,993.670898 1486.331787,993.740540 1486.430420,994.132935 
	C1487.069702,994.992676 1487.610474,995.460022 1488.151245,995.927307 
	C1488.151245,995.927307 1488.002686,995.978149 1488.034424,996.654663 
	C1487.970215,1000.239441 1489.139526,1001.952637 1492.285645,1001.798950 
	C1492.285645,1001.798950 1492.123657,1001.901367 1492.280029,1002.296265 
	C1492.940918,1003.124939 1493.445557,1003.558777 1493.950073,1003.992554 
	C1493.950073,1003.992554 1494.014893,1003.997375 1494.065918,1004.645386 
	C1494.915161,1006.118530 1495.713501,1006.943787 1496.511841,1007.769043 
	C1496.511841,1007.769043 1496.226196,1007.811829 1496.357666,1008.200806 
	C1497.026001,1009.040222 1497.562866,1009.490723 1498.099609,1009.941223 
	C1498.099609,1009.941223 1497.994507,1009.990051 1498.021729,1010.676453 
	C1497.953979,1014.228394 1499.122925,1015.928589 1502.202148,1015.867554 
	C1502.202148,1015.867554 1502.050781,1015.958801 1502.224854,1016.340393 
	C1502.722900,1017.320557 1503.198364,1017.751770 1503.825562,1018.015625 
	C1503.825562,1018.015625 1504.306519,1018.285522 1504.377930,1019.208374 
	C1505.068726,1020.717224 1505.688110,1021.303345 1506.307617,1021.889404 
	C1506.307617,1021.889404 1506.133057,1021.879395 1506.194580,1022.520020 
	C1507.238403,1024.030029 1508.220703,1024.899414 1509.203125,1025.768799 
	C1509.863647,1026.369629 1510.524170,1026.970337 1511.688232,1028.480835 
	C1514.384277,1032.241943 1516.374878,1035.292358 1518.881348,1037.834229 
	C1519.731445,1038.696411 1522.199585,1038.874268 1523.350342,1038.267822 
	C1524.457397,1037.684448 1525.249390,1035.724609 1525.388062,1034.292969 
	C1525.537842,1032.748169 1525.063599,1030.967529 1524.352295,1029.544067 
	C1520.553345,1021.941772 1516.595093,1014.419067 1512.692017,1006.868835 
z"/>
<path fill="#F8EEED" opacity="1.000000" stroke="none" 
	d="
M1467.844604,1000.517822 
	C1476.073730,1013.750122 1484.348145,1026.954712 1492.500488,1040.234131 
	C1494.572754,1043.609863 1496.583008,1047.101929 1497.960449,1050.787720 
	C1498.506714,1052.249390 1497.741211,1055.513428 1496.710571,1055.958130 
	C1494.968384,1056.709839 1491.961060,1056.629639 1490.527466,1055.534912 
	C1487.964111,1053.577393 1485.996948,1050.731689 1484.092285,1048.037109 
	C1471.054077,1029.592041 1458.146729,1011.054565 1445.086182,992.625427 
	C1440.709106,986.449219 1436.008667,980.502136 1430.711426,973.480103 
	C1424.081909,964.318787 1418.197144,956.127625 1412.044922,947.291626 
	C1408.317505,941.426453 1404.895996,936.180054 1401.388062,930.992126 
	C1396.211304,923.336304 1390.973145,915.722046 1385.761230,908.089966 
	C1390.632935,910.576538 1395.504639,913.063110 1401.992065,916.374390 
	C1400.115601,911.695374 1398.974609,908.517029 1397.573730,905.457642 
	C1396.351562,902.788696 1395.995483,900.455566 1400.028931,898.565186 
	C1408.301758,909.000000 1415.345947,919.460266 1422.555664,930.569580 
	C1430.356079,942.850464 1437.991089,954.482300 1445.802734,966.795593 
	C1452.666382,977.608948 1459.353516,987.740784 1466.040649,997.872620 
	C1466.040649,997.872620 1465.989746,997.982788 1466.129395,998.529175 
	C1466.794189,999.556274 1467.319458,1000.037048 1467.844604,1000.517822 
z"/>
<path fill="#F8ECEC" opacity="1.000000" stroke="none" 
	d="
M1417.859619,984.269531 
	C1423.502319,992.843140 1429.073120,1001.465027 1434.802856,1009.979919 
	C1446.498901,1027.360840 1458.355103,1044.634644 1469.961670,1062.074829 
	C1472.178833,1065.406616 1476.520508,1068.783936 1472.910767,1073.466553 
	C1470.618408,1076.439941 1466.101685,1074.269409 1461.076294,1067.659546 
	C1448.596313,1051.244507 1436.247192,1034.729858 1423.826538,1018.269470 
	C1411.807983,1002.341492 1399.765625,986.431335 1386.971680,969.484253 
	C1376.300903,955.516907 1366.391846,942.578735 1356.443237,929.655640 
	C1356.403564,929.670715 1356.434692,929.742798 1356.302002,929.238037 
	C1355.918945,928.491577 1355.668701,928.249878 1355.736328,928.046326 
	C1356.054321,928.084412 1356.694946,928.089172 1356.694946,928.089172 
	C1359.727783,929.657715 1363.029541,930.867920 1365.721924,932.889832 
	C1368.761719,935.172546 1371.417969,937.308655 1375.649658,934.327942 
	C1373.793579,928.718811 1371.912231,923.033325 1370.492188,916.636963 
	C1370.953369,915.926025 1371.814087,916.067139 1372.001099,916.732178 
	C1381.590820,930.893616 1390.993408,944.390015 1400.555542,958.537354 
	C1406.429932,967.548706 1412.144775,975.909119 1417.859619,984.269531 
z"/>
<path fill="#B72D3C" opacity="1.000000" stroke="none" 
	d="
M1445.626099,966.114075 
	C1437.991089,954.482300 1430.356079,942.850464 1423.108887,930.246826 
	C1427.742188,926.159546 1431.987549,923.044189 1436.232788,919.928833 
	C1442.816162,929.169189 1449.399536,938.409546 1456.047119,949.142578 
	C1454.459595,955.243835 1453.097168,959.993591 1450.963867,964.367371 
	C1450.392456,965.538696 1447.469482,965.563110 1445.626099,966.114075 
z"/>
<path fill="#A82528" opacity="1.000000" stroke="none" 
	d="
M1436.071777,919.248596 
	C1431.987549,923.044189 1427.742188,926.159546 1422.943481,929.597717 
	C1415.345947,919.460266 1408.301758,909.000000 1400.637939,898.267822 
	C1399.867920,897.158813 1399.717529,896.321716 1400.097656,894.569519 
	C1406.673584,890.138855 1404.581543,882.942932 1407.668091,878.089111 
	C1417.082397,891.582214 1426.496582,905.075256 1436.071777,919.248596 
z"/>
<path fill="#AB2529" opacity="1.000000" stroke="none" 
	d="
M1356.482910,929.640564 
	C1366.391846,942.578735 1376.300903,955.516907 1386.426392,969.121704 
	C1377.235107,971.517883 1376.567139,972.310364 1375.956299,983.264404 
	C1367.230713,972.139282 1358.526611,960.193115 1349.988281,946.890381 
	C1354.907471,941.288879 1356.624390,935.834717 1356.482910,929.640564 
z"/>
<path fill="#AB2428" opacity="1.000000" stroke="none" 
	d="
M1445.802734,966.795593 
	C1447.469482,965.563110 1450.392456,965.538696 1450.963867,964.367371 
	C1453.097168,959.993591 1454.459595,955.243835 1456.152100,949.785767 
	C1456.763428,949.458313 1457.333984,949.980286 1458.149292,951.579041 
	C1458.906250,953.092834 1459.418213,953.529846 1459.930298,953.966919 
	C1467.924438,965.487549 1475.918457,977.008179 1484.030151,989.214722 
	C1481.024048,989.270874 1477.924194,988.304504 1474.771606,988.082214 
	C1468.336548,987.628540 1467.389771,988.676270 1466.034180,997.072021 
	C1459.353516,987.740784 1452.666382,977.608948 1445.802734,966.795593 
z"/>
<path fill="#A9262B" opacity="1.000000" stroke="none" 
	d="
M1400.395996,957.886475 
	C1390.993408,944.390015 1381.590820,930.893616 1372.716675,916.426636 
	C1378.728027,914.205505 1383.628784,912.442017 1382.295044,905.185242 
	C1383.106689,905.981506 1383.918213,906.777710 1385.245605,907.832031 
	C1390.973145,915.722046 1396.211304,923.336304 1401.388062,930.992126 
	C1404.895996,936.180054 1408.317505,941.426453 1411.205444,947.310913 
	C1408.160400,948.186646 1405.687500,948.398071 1403.355713,948.597534 
	C1402.262207,952.029541 1401.329102,954.958008 1400.395996,957.886475 
z"/>
<path fill="#AC292E" opacity="1.000000" stroke="none" 
	d="
M1383.936523,870.080688 
	C1375.298950,857.085510 1366.483887,844.203247 1358.109375,831.040771 
	C1354.667969,825.631409 1355.448364,821.963135 1359.192871,819.713623 
	C1362.840454,817.522339 1366.586060,818.240601 1370.290894,823.310669 
	C1377.749512,833.517334 1384.675659,844.113220 1391.249878,855.187561 
	C1382.617554,854.352234 1381.797485,855.102600 1383.114258,862.360229 
	C1383.575073,864.899780 1383.672852,867.505310 1383.936523,870.080688 
z"/>
<path fill="#A9292E" opacity="1.000000" stroke="none" 
	d="
M1313.736938,872.112122 
	C1321.884155,882.673950 1330.031372,893.235779 1337.682495,904.757935 
	C1333.458496,908.491943 1329.730835,911.265686 1326.003052,914.039429 
	C1319.302002,904.727417 1312.601074,895.415405 1306.038330,884.793457 
	C1308.696655,879.692993 1311.216797,875.902588 1313.736938,872.112122 
z"/>
<path fill="#AB292F" opacity="1.000000" stroke="none" 
	d="
M1341.799316,848.072632 
	C1349.729980,858.990112 1357.660645,869.907532 1365.343140,882.019104 
	C1361.306763,885.811340 1355.752930,886.687561 1355.659180,892.888611 
	C1347.725098,881.760864 1339.791138,870.633179 1332.435669,858.774353 
	C1337.374268,858.016479 1339.772217,856.007324 1340.096313,851.485168 
	C1340.180176,850.312988 1341.206055,849.208313 1341.799316,848.072632 
z"/>
<path fill="#B72E3E" opacity="1.000000" stroke="none" 
	d="
M1326.161621,914.703857 
	C1329.730835,911.265686 1333.458496,908.491943 1337.842773,905.406433 
	C1338.499390,905.094666 1338.468018,905.218384 1338.529785,905.861328 
	C1339.203369,906.947449 1339.815186,907.390625 1340.427124,907.833801 
	C1340.427124,907.833801 1340.148071,907.883240 1340.338013,908.279053 
	C1341.094238,909.161316 1341.660400,909.647644 1342.226685,910.134033 
	C1346.704346,915.799316 1351.182007,921.464661 1356.177246,927.609558 
	C1356.694946,928.089172 1356.054321,928.084412 1355.527832,928.348022 
	C1355.479004,928.988708 1355.956909,929.365784 1356.434692,929.742798 
	C1356.434692,929.742798 1356.403564,929.670715 1356.443237,929.655640 
	C1356.624390,935.834717 1354.907471,941.288879 1349.801270,946.248657 
	C1341.739136,936.431763 1334.029663,925.900024 1326.161621,914.703857 
z"/>
<path fill="#B62F3F" opacity="1.000000" stroke="none" 
	d="
M1355.803223,893.530334 
	C1355.752930,886.687561 1361.306763,885.811340 1365.523438,882.687439 
	C1371.300659,889.409546 1376.649292,896.657532 1382.146484,904.545410 
	C1383.628784,912.442017 1378.728027,914.205505 1372.529663,915.761597 
	C1371.814087,916.067139 1370.953369,915.926025 1370.524170,915.849976 
	C1365.379028,908.573303 1360.663086,901.372681 1355.803223,893.530334 
z"/>
<path fill="#93262C" opacity="1.000000" stroke="none" 
	d="
M2066.644287,1148.015625 
	C2067.373291,1132.963745 2068.593506,1117.190430 2069.723877,1101.410522 
	C2070.549805,1089.880859 2071.663818,1078.351929 2071.921387,1066.806396 
	C2072.291504,1050.209229 2071.826416,1033.595093 2072.031494,1016.992065 
	C2072.318115,993.810974 2071.196777,970.742798 2068.207031,947.735168 
	C2067.400635,941.531494 2068.097168,935.132446 2068.141602,927.813599 
	C2069.379883,935.247498 2071.016602,943.655457 2071.706543,952.140442 
	C2074.972412,992.308777 2075.787598,1032.564819 2073.593506,1072.791138 
	C2072.236328,1097.668579 2069.315430,1122.460815 2066.644287,1148.015625 
z"/>
<path fill="#B72D3C" opacity="1.000000" stroke="none" 
	d="
M1383.962646,870.050903 
	C1383.672852,867.505310 1383.575073,864.899780 1383.114258,862.360229 
	C1381.797485,855.102600 1382.617554,854.352234 1391.398560,855.865112 
	C1392.118652,855.903625 1392.040405,855.940125 1392.062500,856.632690 
	C1391.945068,860.192078 1393.109253,861.892578 1396.172363,861.894043 
	C1396.172363,861.894043 1396.034302,861.971741 1396.227173,862.328369 
	C1396.733398,863.246033 1397.177246,863.671021 1397.751343,863.959900 
	C1397.751343,863.959900 1398.257080,864.248657 1398.363403,865.184753 
	C1399.113281,866.707214 1399.756714,867.293579 1400.400269,867.879883 
	C1402.735107,870.866089 1405.069946,873.852356 1407.536377,877.463867 
	C1404.581543,882.942932 1406.673584,890.138855 1399.930176,893.953369 
	C1396.317993,889.923340 1393.403931,885.594299 1390.657471,880.352539 
	C1390.366089,879.081848 1389.907349,878.723755 1389.448486,878.365601 
	C1389.448486,878.365601 1389.683472,878.220154 1389.585693,877.826172 
	C1388.954712,876.973022 1388.421265,876.513855 1387.887939,876.054688 
	C1387.887939,876.054688 1388.005615,876.014099 1387.912842,875.425659 
	C1387.038086,873.957031 1386.256104,873.076904 1385.474121,872.196777 
	C1385.474121,872.196838 1385.796021,872.151428 1385.647461,871.789062 
	C1384.972168,870.965088 1384.445435,870.503418 1383.918579,870.041748 
	C1383.918579,870.041748 1383.988647,870.021179 1383.962646,870.050903 
z"/>
<path fill="#B53242" opacity="1.000000" stroke="none" 
	d="
M1313.546997,871.452637 
	C1311.216797,875.902588 1308.696655,879.692993 1305.862793,884.142944 
	C1302.462524,880.566589 1299.101440,876.497681 1296.386597,872.035645 
	C1294.606567,869.110229 1294.091675,864.990540 1297.660522,863.327393 
	C1300.138306,862.172607 1304.149292,862.438049 1306.648682,863.702759 
	C1309.381104,865.085327 1311.161621,868.349243 1313.546997,871.452637 
z"/>
<path fill="#B33344" opacity="1.000000" stroke="none" 
	d="
M1341.626709,847.393799 
	C1341.206055,849.208313 1340.180176,850.312988 1340.096313,851.485168 
	C1339.772217,856.007324 1337.374268,858.016479 1332.228271,858.096985 
	C1329.695435,855.802612 1327.547119,853.647888 1326.299561,851.059143 
	C1324.598022,847.527649 1324.867798,843.966797 1328.510864,841.434631 
	C1331.749512,839.183777 1334.785278,839.885376 1337.505859,842.309998 
	C1338.968628,843.613770 1340.147217,845.236328 1341.626709,847.393799 
z"/>
<path fill="#F1D5D3" opacity="1.000000" stroke="none" 
	d="
M1512.645630,1007.643433 
	C1516.595093,1014.419067 1520.553345,1021.941772 1524.352295,1029.544067 
	C1525.063599,1030.967529 1525.537842,1032.748169 1525.388062,1034.292969 
	C1525.249390,1035.724609 1524.457397,1037.684448 1523.350342,1038.267822 
	C1522.199585,1038.874268 1519.731445,1038.696411 1518.881348,1037.834229 
	C1516.374878,1035.292358 1514.384277,1032.241943 1512.079224,1028.713135 
	C1514.144775,1028.492554 1516.322998,1028.949341 1518.836304,1029.476318 
	C1519.730225,1021.343811 1515.021851,1015.208252 1512.645630,1007.643433 
z"/>
<path fill="#93262C" opacity="1.000000" stroke="none" 
	d="
M2068.823975,925.360352 
	C2067.920898,925.330017 2066.511475,924.417297 2066.418213,923.385437 
	C2065.518066,913.447693 2064.839355,903.489990 2064.172852,892.606201 
	C2065.808594,902.590515 2067.368408,913.506592 2068.823975,925.360352 
z"/>
<path fill="#93262C" opacity="1.000000" stroke="none" 
	d="
M2064.588379,891.034790 
	C2060.198486,883.999329 2059.736816,875.424133 2060.165283,865.734131 
	C2061.713379,873.227539 2063.208496,881.691040 2064.588379,891.034790 
z"/>
<path fill="#AC292E" opacity="1.000000" stroke="none" 
	d="
M1396.056641,861.279297 
	C1393.109253,861.892578 1391.945068,860.192078 1392.084229,856.598267 
	C1393.369629,857.468994 1394.655273,859.066711 1396.056641,861.279297 
z"/>
<path fill="#AB2428" opacity="1.000000" stroke="none" 
	d="
M1492.178711,1001.179016 
	C1489.139526,1001.952637 1487.970215,1000.239441 1488.088013,996.597290 
	C1489.430542,997.428589 1490.751099,998.993835 1492.178711,1001.179016 
z"/>
<path fill="#AB2529" opacity="1.000000" stroke="none" 
	d="
M1381.938965,992.723511 
	C1384.868774,992.079468 1386.033691,993.758728 1385.972534,997.283325 
	C1384.655518,996.446899 1383.338379,994.895447 1381.938965,992.723511 
z"/>
<path fill="#93262C" opacity="1.000000" stroke="none" 
	d="
M2058.675537,851.427612 
	C2057.810303,849.239197 2056.993652,846.241699 2056.302490,842.401001 
	C2057.193359,844.578003 2057.958740,847.598328 2058.675537,851.427612 
z"/>
<path fill="#93262C" opacity="1.000000" stroke="none" 
	d="
M2056.803711,840.963135 
	C2052.460205,839.677917 2054.510498,835.771729 2054.174072,831.653687 
	C2055.096191,833.882080 2055.977295,837.010010 2056.803711,840.963135 
z"/>
<path fill="#AB2428" opacity="1.000000" stroke="none" 
	d="
M1502.109741,1015.246216 
	C1499.122925,1015.928589 1497.953979,1014.228394 1498.065063,1010.636963 
	C1499.393066,1011.482361 1500.705200,1013.053650 1502.109741,1015.246216 
z"/>
<path fill="#93262C" opacity="1.000000" stroke="none" 
	d="
M2060.681885,863.398560 
	C2056.831055,861.794434 2058.326416,857.960632 2058.187256,853.652100 
	C2059.072266,856.005493 2059.903564,859.267700 2060.681885,863.398560 
z"/>
<path fill="#AB2529" opacity="1.000000" stroke="none" 
	d="
M1387.667480,1000.748962 
	C1388.362061,1000.999023 1389.130615,1001.837463 1389.962280,1003.281799 
	C1389.264160,1003.037598 1388.502930,1002.187500 1387.667480,1000.748962 
z"/>
<path fill="#AB2428" opacity="1.000000" stroke="none" 
	d="
M1486.561401,993.068420 
	C1485.817017,992.830811 1484.987671,991.990784 1484.132935,990.503113 
	C1484.897217,990.725647 1485.686768,991.595764 1486.561401,993.068420 
z"/>
<path fill="#AB2428" opacity="1.000000" stroke="none" 
	d="
M1496.431519,1007.176025 
	C1495.713501,1006.943787 1494.915161,1006.118530 1494.055176,1004.676147 
	C1494.779297,1004.900391 1495.565186,1005.741760 1496.431519,1007.176025 
z"/>
<path fill="#AB2529" opacity="1.000000" stroke="none" 
	d="
M1377.676270,986.743042 
	C1378.363770,986.971252 1379.138550,987.774963 1379.998169,989.169434 
	C1379.309814,988.946350 1378.536621,988.132507 1377.676270,986.743042 
z"/>
<path fill="#AB2428" opacity="1.000000" stroke="none" 
	d="
M1509.005005,1025.143066 
	C1508.220703,1024.899414 1507.238403,1024.030029 1506.234497,1022.442261 
	C1507.077637,1022.655090 1507.942261,1023.586243 1509.005005,1025.143066 
z"/>
<path fill="#AC292E" opacity="1.000000" stroke="none" 
	d="
M1385.562500,872.798218 
	C1386.256104,873.076904 1387.038086,873.957031 1387.870850,875.471619 
	C1387.164673,875.203979 1386.407837,874.301819 1385.562500,872.798218 
z"/>
<path fill="#AC292E" opacity="1.000000" stroke="none" 
	d="
M1387.971924,876.608887 
	C1388.421265,876.513855 1388.954712,876.973022 1389.611084,877.962036 
	C1389.174683,878.048950 1388.615234,877.606079 1387.971924,876.608887 
z"/>
<path fill="#AC292E" opacity="1.000000" stroke="none" 
	d="
M1397.683716,863.466064 
	C1397.177246,863.671021 1396.733398,863.246033 1396.245972,862.251404 
	C1396.791382,861.928833 1397.306152,862.313660 1397.683716,863.466064 
z"/>
<path fill="#AB2428" opacity="1.000000" stroke="none" 
	d="
M1506.210571,1021.232056 
	C1505.688110,1021.303345 1505.068726,1020.717224 1504.327148,1019.479431 
	C1504.841187,1019.410034 1505.477417,1019.992371 1506.210571,1021.232056 
z"/>
<path fill="#AB2428" opacity="1.000000" stroke="none" 
	d="
M1503.780640,1017.493164 
	C1503.198364,1017.751770 1502.722900,1017.320557 1502.250366,1016.255737 
	C1502.646362,1016.183289 1503.191040,1016.576965 1503.780640,1017.493164 
z"/>
<path fill="#AC292E" opacity="1.000000" stroke="none" 
	d="
M1400.226929,867.232666 
	C1399.756714,867.293579 1399.113281,866.707214 1398.295654,865.467896 
	C1398.765503,865.405090 1399.409546,865.995239 1400.226929,867.232666 
z"/>
<path fill="#AC292E" opacity="1.000000" stroke="none" 
	d="
M1384.006836,870.592773 
	C1384.445435,870.503418 1384.972168,870.965088 1385.631592,871.950928 
	C1385.207886,872.031311 1384.651367,871.587585 1384.006836,870.592773 
z"/>
<path fill="#AB2428" opacity="1.000000" stroke="none" 
	d="
M1498.030518,1009.387329 
	C1497.562866,1009.490723 1497.026001,1009.040222 1496.381592,1008.058350 
	C1496.836426,1007.962524 1497.398804,1008.398010 1498.030518,1009.387329 
z"/>
<path fill="#AB2529" opacity="1.000000" stroke="none" 
	d="
M1390.154297,1004.555908 
	C1390.596313,1004.495667 1391.097900,1004.988281 1391.722046,1006.005859 
	C1391.301147,1006.056824 1390.757446,1005.582825 1390.154297,1004.555908 
z"/>
<path fill="#AB2428" opacity="1.000000" stroke="none" 
	d="
M1493.888428,1003.455261 
	C1493.445557,1003.558777 1492.940918,1003.124939 1492.293213,1002.201416 
	C1492.708984,1002.113770 1493.267944,1002.515869 1493.888428,1003.455261 
z"/>
<path fill="#B72D3C" opacity="1.000000" stroke="none" 
	d="
M1459.868164,953.439453 
	C1459.418213,953.529846 1458.906250,953.092834 1458.290527,952.150635 
	C1458.726685,952.067627 1459.266479,952.489746 1459.868164,953.439453 
z"/>
<path fill="#AB2529" opacity="1.000000" stroke="none" 
	d="
M1386.059326,998.574219 
	C1386.511963,998.473694 1387.030396,998.918152 1387.675415,999.873291 
	C1387.243042,999.962402 1386.683960,999.540833 1386.059326,998.574219 
z"/>
<path fill="#AC292E" opacity="1.000000" stroke="none" 
	d="
M1389.519043,878.833984 
	C1389.907349,878.723755 1390.366089,879.081848 1390.551758,879.696411 
	C1390.278564,879.952881 1389.589722,879.302429 1389.519043,878.833984 
z"/>
<path fill="#AB2428" opacity="1.000000" stroke="none" 
	d="
M1488.089111,995.368164 
	C1487.610474,995.460022 1487.069702,994.992676 1486.459717,993.974487 
	C1486.936035,993.885437 1487.481445,994.347229 1488.089111,995.368164 
z"/>
<path fill="#A9292E" opacity="1.000000" stroke="none" 
	d="
M1340.312500,907.262024 
	C1339.815186,907.390625 1339.203369,906.947449 1338.505127,905.920227 
	C1339.011963,905.787537 1339.604858,906.238892 1340.312500,907.262024 
z"/>
<path fill="#A9292E" opacity="1.000000" stroke="none" 
	d="
M1342.095825,909.557617 
	C1341.660400,909.647644 1341.094238,909.161316 1340.341797,908.137451 
	C1340.758667,908.060425 1341.361816,908.520813 1342.095825,909.557617 
z"/>
<path fill="#AB2529" opacity="1.000000" stroke="none" 
	d="
M1380.259766,990.481323 
	C1380.823730,990.230042 1381.290283,990.654480 1381.763672,991.695801 
	C1381.380859,991.766296 1380.844971,991.381042 1380.259766,990.481323 
z"/>
<path fill="#AB2529" opacity="1.000000" stroke="none" 
	d="
M1375.991699,984.593750 
	C1376.448486,984.482178 1376.989014,984.919067 1377.666382,985.873901 
	C1377.227173,985.975342 1376.651367,985.558777 1375.991699,984.593750 
z"/>
<path fill="#B82B3D" opacity="1.000000" stroke="none" 
	d="
M1400.555664,958.537354 
	C1401.329102,954.958008 1402.262207,952.029541 1403.355713,948.597534 
	C1405.687500,948.398071 1408.160400,948.186646 1411.472900,947.955811 
	C1418.197144,956.127625 1424.081909,964.318787 1430.092529,973.196777 
	C1426.196533,976.869690 1422.174805,979.855774 1418.006348,983.555664 
	C1412.144775,975.909119 1406.429932,967.548706 1400.555664,958.537354 
z"/>
<path fill="#AB2428" opacity="1.000000" stroke="none" 
	d="
M1467.721680,999.995972 
	C1467.319458,1000.037048 1466.794189,999.556274 1466.189941,998.533447 
	C1466.606812,998.485657 1467.102783,998.979858 1467.721680,999.995972 
z"/>
<path fill="#AB2529" opacity="1.000000" stroke="none" 
	d="
M1356.302002,929.238037 
	C1355.956909,929.365784 1355.479004,928.988708 1355.209839,928.309937 
	C1355.668701,928.249878 1355.918945,928.491577 1356.302002,929.238037 
z"/>
</svg>